<svg width="141" height="92" viewBox="0 0 141 92" fill="none" xmlns="http://www.w3.org/2000/svg">
<path fill-rule="evenodd" clip-rule="evenodd" d="M122.279 68.1151C122.113 68.0331 121.882 67.9493 121.619 67.8508C120.615 67.5045 118.985 67.0761 116.714 66.5821C114.723 66.1373 113.72 65.5576 113.72 64.834C113.72 64.3235 113.901 63.9116 114.247 63.6126C114.707 63.2152 115.529 63.022 116.714 63.022C117.917 63.022 118.786 63.2845 119.297 63.7949C119.612 64.1103 119.842 64.6662 119.989 65.4628H121.619H124.764C124.764 64.2907 124.525 63.2845 124.053 62.446C123.579 61.6038 122.871 60.9257 121.934 60.4153C121.834 60.3497 121.734 60.2986 121.621 60.2512C120.319 59.6424 118.591 59.3252 116.435 59.3252C113.817 59.3252 111.845 60.0215 110.527 61.4215C109.477 62.5426 108.965 63.9116 108.965 65.5248C108.965 67.5391 109.951 68.9883 111.96 69.9271C112.716 70.2917 114.561 70.8057 117.488 71.4291C119.446 71.8612 120.432 72.47 120.432 73.2447C120.432 73.7041 120.239 74.0997 119.809 74.4642C119.266 74.9254 118.444 75.1588 117.339 75.1588C115.875 75.1588 114.842 74.9108 114.231 74.4314C113.622 73.9702 113.307 73.294 113.307 72.4354H108.305C108.305 73.5747 108.545 74.5645 109.025 75.4158C109.502 76.2653 110.224 76.9689 111.187 77.5303C112.716 78.4053 114.723 78.8501 117.209 78.8501C118.872 78.8501 120.35 78.5694 121.619 78.0262C121.882 77.9113 122.113 77.7965 122.361 77.6616C124.319 76.5751 125.305 74.8416 125.305 72.47C125.305 70.525 124.3 69.0703 122.279 68.1151Z" fill="white"/>
<path fill-rule="evenodd" clip-rule="evenodd" d="M88.2958 53.671H96.4897H110.003L96.4897 31.1146L81.5475 6.21582L75.3916 9.92357L65.6191 15.8097L75.3916 32.1208L88.2958 53.671Z" fill="white"/>
<path fill-rule="evenodd" clip-rule="evenodd" d="M101.804 70.358C101.328 72.8298 99.1391 74.7275 96.5397 74.7275H96.4886C93.5447 74.6947 91.1585 72.2884 91.1585 69.3335C91.1585 66.3841 93.5447 63.9761 96.4886 63.9597H96.5397C99.1391 63.9597 101.328 65.8391 101.804 68.3146V70.358ZM101.804 61.1069C100.291 60.1189 98.481 59.541 96.5397 59.541H96.4886C91.1239 59.5738 86.7617 63.9597 86.7617 69.3335C86.7617 74.7092 91.1239 79.0987 96.4886 79.1297H96.5397C98.481 79.1297 100.291 78.5519 101.804 77.562V78.5865H106.299V69.3335V60.035H101.804V61.1069Z" fill="white"/>
<path fill-rule="evenodd" clip-rule="evenodd" d="M80.7086 70.3581C80.231 72.8299 78.0417 74.7275 75.4405 74.7275H75.3912C72.4455 74.6947 70.0611 72.2885 70.0611 69.3336C70.0611 66.3842 72.4455 63.9762 75.3912 63.9597H75.4405C78.0417 63.9597 80.231 65.8391 80.7086 68.3146V70.3581ZM80.7086 61.1069C79.1774 60.1189 77.3836 59.5411 75.4405 59.5411H75.3912C70.0265 59.5739 65.668 63.9597 65.668 69.3336C65.668 74.7093 70.0265 79.0988 75.3912 79.1298H75.4405C77.3836 79.1298 79.1774 78.5519 80.7086 77.5621V78.5866H85.2002V69.3336V53.6714H80.7086V61.1069Z" fill="white"/>
<path fill-rule="evenodd" clip-rule="evenodd" d="M80.6908 53.6707L75.3917 44.7987L62.3745 23.0991L46.9547 32.4013L46.4297 32.713L46.9547 33.5862L59.0003 53.6707H75.3917H80.6908Z" fill="white"/>
<mask id="mask0_420_4999" style="mask-type:luminance" maskUnits="userSpaceOnUse" x="15" y="6" width="111" height="74">
<path d="M15.9336 79.1307H125.307V6.21533H15.9336V79.1307Z" fill="#003B44"/>
</mask>
<g mask="url(#mask0_420_4999)">
<path fill-rule="evenodd" clip-rule="evenodd" d="M59.0195 78.5855H63.9067V59.54H59.0195V78.5855Z" fill="white"/>
</g>
<mask id="mask1_420_4999" style="mask-type:luminance" maskUnits="userSpaceOnUse" x="15" y="6" width="111" height="74">
<path d="M15.9336 79.1307H125.307V6.21533H15.9336V79.1307Z" fill="#003B44"/>
</mask>
<g mask="url(#mask1_420_4999)">
<path fill-rule="evenodd" clip-rule="evenodd" d="M59.0195 58.0706H63.9067V53.7686H59.0195V58.0706Z" fill="white"/>
</g>
<mask id="mask2_420_4999" style="mask-type:luminance" maskUnits="userSpaceOnUse" x="15" y="6" width="111" height="74">
<path d="M15.9336 79.1307H125.307V6.21533H15.9336V79.1307Z" fill="#003B44"/>
</mask>
<g mask="url(#mask2_420_4999)">
<path fill-rule="evenodd" clip-rule="evenodd" d="M52.2875 70.3581C51.8099 72.8299 49.6206 74.7275 47.0048 74.7275H46.9556C44.008 74.6947 41.6236 72.2885 41.6236 69.3336C41.6236 66.3842 44.008 63.9762 46.9556 63.9597H47.0048C49.6206 63.9597 51.8099 65.8391 52.2875 68.3146V70.3581ZM52.2875 61.1069C50.7581 60.1189 48.9461 59.5411 47.0048 59.5411H46.9556C41.5908 59.5739 37.2305 63.9597 37.2305 69.3336C37.2305 74.7093 41.5908 79.0988 46.9556 79.1298H47.0048C48.9461 79.1298 50.7581 78.5519 52.2875 77.5621V78.5866H56.7791V69.3336V53.6714H52.2875V61.1069Z" fill="white"/>
</g>
<mask id="mask3_420_4999" style="mask-type:luminance" maskUnits="userSpaceOnUse" x="15" y="6" width="111" height="74">
<path d="M15.9336 79.1307H125.307V6.21533H15.9336V79.1307Z" fill="#003B44"/>
</mask>
<g mask="url(#mask3_420_4999)">
<path fill-rule="evenodd" clip-rule="evenodd" d="M46.9558 53.6708H51.4L46.9558 46.2498L43.2043 40.001L27.2559 49.5985L29.6931 53.6708H46.9558Z" fill="white"/>
</g>
<mask id="mask4_420_4999" style="mask-type:luminance" maskUnits="userSpaceOnUse" x="15" y="6" width="111" height="74">
<path d="M15.9336 79.1307H125.307V6.21533H15.9336V79.1307Z" fill="black"/>
</mask>
<g mask="url(#mask4_420_4999)">
<path fill-rule="evenodd" clip-rule="evenodd" d="M30.976 70.358C30.4984 72.8298 28.311 74.7275 25.6933 74.7275H25.6423C22.7129 74.6947 20.3286 72.2884 20.3286 69.3335C20.3286 66.3841 22.7129 63.9761 25.6423 63.9597H25.6933C28.311 63.9597 30.4984 65.8391 30.976 68.3146V70.358ZM30.976 61.1069C29.4448 60.1189 27.6347 59.541 25.6933 59.541H25.6423C20.2958 59.5738 15.9336 63.9597 15.9336 69.3335C15.9336 74.7092 20.2958 79.0987 25.6423 79.1297H25.6933C27.6347 79.1297 29.4448 78.5519 30.976 77.562V78.5865H35.4676V69.3335V60.035H30.976V61.1069Z" fill="white"/>
</g>
</svg>
