<svg width="20" height="20" viewBox="0 0 20 20" fill="none" xmlns="http://www.w3.org/2000/svg">
<path d="M1.9043 16.1272C1.9043 17.0883 2.14766 17.8091 2.63439 18.2896C3.12112 18.7701 3.85122 19.0104 4.82469 19.0104H15.7714C16.6023 19.0104 17.2503 18.7701 17.7153 18.2896C18.1804 17.8091 18.4129 17.0883 18.4129 16.1272V6.50111C18.4129 5.54005 18.1679 4.81926 17.6781 4.33872C17.1883 3.8582 16.4597 3.61793 15.4925 3.61793H14.0044C13.9919 2.96689 13.8106 2.367 13.4603 1.81827C13.1099 1.26953 12.6465 0.829302 12.0698 0.497582C11.4932 0.165861 10.8546 0 10.1539 0C9.45328 0 8.81464 0.165861 8.238 0.497582C7.66137 0.829302 7.19944 1.26953 6.85221 1.81827C6.50499 2.367 6.32208 2.96689 6.30348 3.61793H4.82469C3.85122 3.61793 3.12112 3.8582 2.63439 4.33872C2.14766 4.81926 1.9043 5.54005 1.9043 6.50111V16.1272ZM7.80088 3.61793C7.81328 3.2149 7.92488 2.84598 8.1357 2.51116C8.34651 2.17634 8.62708 1.90973 8.9774 1.71131C9.32773 1.5129 9.7199 1.4137 10.1539 1.4137C10.5942 1.4137 10.9894 1.5129 11.3398 1.71131C11.6901 1.90973 11.9691 2.17634 12.1768 2.51116C12.3845 2.84598 12.4946 3.2149 12.507 3.61793H7.80088Z" fill="white"/>
</svg>
