<svg width="19" height="20" viewBox="0 0 19 20" fill="none" xmlns="http://www.w3.org/2000/svg">
<g clip-path="url(#clip0_428_6344)">
<path d="M9.01953 18.5C13.1617 18.5 16.5195 15.1421 16.5195 11C16.5195 6.85786 13.1617 3.5 9.01953 3.5C4.8774 3.5 1.51953 6.85786 1.51953 11C1.51953 15.1421 4.8774 18.5 9.01953 18.5Z" stroke="#191919" stroke-opacity="0.7" stroke-width="1.5"/>
<path d="M9.01953 14.75V10.25" stroke="#191919" stroke-opacity="0.7" stroke-width="1.5" stroke-linecap="round"/>
<path d="M9.01953 7.25C9.43374 7.25 9.76953 7.58579 9.76953 8C9.76953 8.41421 9.43374 8.75 9.01953 8.75C8.60532 8.75 8.26953 8.41421 8.26953 8C8.26953 7.58579 8.60532 7.25 9.01953 7.25Z" fill="#191919" fill-opacity="0.7"/>
</g>
<defs>
<clipPath id="clip0_428_6344">
<rect width="18" height="18" fill="white" transform="translate(0.0195312 2)"/>
</clipPath>
</defs>
</svg>
