<svg width="48" height="31" viewBox="0 0 48 31" fill="none" xmlns="http://www.w3.org/2000/svg">
<path d="M7.35688 6.36643C8.40481 6.6114 9.27582 6.8904 9.9699 7.20341C10.664 7.50282 11.222 7.92472 11.6439 8.4691C12.0658 8.99987 12.2767 9.68715 12.2767 10.5309C12.2767 11.3611 12.0181 12.096 11.501 12.7357C10.9838 13.3617 10.2489 13.8517 9.29623 14.2055C8.35718 14.5457 7.26161 14.7159 6.00954 14.7159V12.7561C7.35688 12.7561 8.3844 12.5656 9.09209 12.1845C9.81339 11.7898 10.174 11.259 10.174 10.5922C10.174 10.1295 10.0448 9.76881 9.78617 9.51023C9.52759 9.23804 9.18736 9.03389 8.76546 8.8978C8.35718 8.74809 7.71073 8.56436 6.82611 8.34661C5.57403 8.01998 4.58054 7.70697 3.84563 7.40756C3.11071 7.09454 2.47107 6.57057 1.92669 5.83566C1.38231 5.08714 1.11012 4.05962 1.11012 2.75311C1.11012 2.08624 1.17816 1.24245 1.31426 0.221738H11.8276V2.14068H3.13113C3.0903 2.46731 3.06988 2.76672 3.06988 3.03891C3.06988 3.76021 3.2332 4.325 3.55983 4.73329C3.90006 5.14157 4.34918 5.45459 4.90717 5.67234C5.47877 5.8901 6.29534 6.12146 7.35688 6.36643ZM26.974 0.221738V14.5117H24.9326V8.34661H16.7669V14.5117H14.7255V0.221738H16.7669V6.38684H24.9326V0.221738H26.974ZM32.4915 0.221738V14.5117H30.45V0.221738H32.4915ZM46.9912 0.221738V0.834166C46.9912 2.56257 46.6033 4.08684 45.8275 5.40696C45.0518 6.71347 43.9767 7.72738 42.6021 8.44868C41.2411 9.15638 39.7101 9.51023 38.0089 9.51023V14.5117H35.9675V0.221738H46.9912ZM38.0089 7.65253C39.2337 7.65253 40.3293 7.42797 41.2956 6.97886C42.2755 6.51613 43.0716 5.86968 43.684 5.0395C44.2965 4.19571 44.6843 3.21583 44.8477 2.09985H38.0089V7.65253ZM6.00789 23.8043C6.87083 24.006 7.58808 24.2358 8.15964 24.4936C8.73119 24.7401 9.19068 25.0875 9.5381 25.5358C9.88551 25.9729 10.0592 26.5388 10.0592 27.2337C10.0592 27.9173 9.84629 28.5225 9.42042 29.0492C8.99456 29.5647 8.38938 29.9682 7.60489 30.2596C6.8316 30.5397 5.92944 30.6798 4.89839 30.6798V29.066C6.00789 29.066 6.85402 28.9091 7.43678 28.5953C8.03075 28.2703 8.32774 27.8332 8.32774 27.2841C8.32774 26.9031 8.22127 26.6061 8.00834 26.3931C7.79541 26.169 7.51523 26.0009 7.16781 25.8888C6.8316 25.7655 6.29927 25.6143 5.57082 25.4349C4.53977 25.166 3.72166 24.9082 3.11648 24.6617C2.5113 24.4039 1.98457 23.9724 1.53629 23.3672C1.08801 22.7509 0.863871 21.9047 0.863871 20.8289C0.863871 20.2797 0.919906 19.5849 1.03198 18.7444H9.68939V20.3245H2.52811C2.49449 20.5935 2.47768 20.8401 2.47768 21.0642C2.47768 21.6582 2.61216 22.1233 2.88113 22.4595C3.16131 22.7957 3.53114 23.0535 3.99063 23.2328C4.46132 23.4121 5.13374 23.6026 6.00789 23.8043ZM21.9939 18.7444V30.5117H20.3129V25.4349H13.5886V30.5117H11.9076V18.7444H13.5886V23.8211H20.3129V18.7444H21.9939ZM30.0675 30.6798C28.9356 30.6798 27.899 30.4165 26.9576 29.8897C26.0162 29.3518 25.2765 28.6233 24.7386 27.7044C24.2007 26.7742 23.9317 25.7487 23.9317 24.628C23.9317 23.5073 24.2007 22.4875 24.7386 21.5685C25.2765 20.6383 26.0162 19.9099 26.9576 19.3832C27.899 18.8452 28.9356 18.5763 30.0675 18.5763C31.1995 18.5763 32.2361 18.8452 33.1775 19.3832C34.1189 19.9099 34.8585 20.6383 35.3965 21.5685C35.9344 22.4875 36.2034 23.5073 36.2034 24.628C36.2034 25.7487 35.9344 26.7742 35.3965 27.7044C34.8585 28.6233 34.1189 29.3518 33.1775 29.8897C32.2361 30.4165 31.1995 30.6798 30.0675 30.6798ZM30.0675 29.066C30.8745 29.066 31.6085 28.8699 32.2697 28.4776C32.9421 28.0854 33.4689 27.5531 33.8499 26.8806C34.2422 26.197 34.4383 25.4461 34.4383 24.628C34.4383 23.8099 34.2422 23.0647 33.8499 22.3922C33.4689 21.7086 32.9421 21.1707 32.2697 20.7784C31.6085 20.3862 30.8745 20.1901 30.0675 20.1901C29.2606 20.1901 28.521 20.3862 27.8486 20.7784C27.1873 21.1707 26.6606 21.7086 26.2684 22.3922C25.8873 23.0647 25.6968 23.8099 25.6968 24.628C25.6968 25.4461 25.8873 26.197 26.2684 26.8806C26.6606 27.5531 27.1873 28.0854 27.8486 28.4776C28.521 28.8699 29.2606 29.066 30.0675 29.066ZM47.2195 18.7444V19.2487C47.2195 20.672 46.9001 21.9271 46.2613 23.0142C45.6225 24.0901 44.7372 24.925 43.6053 25.519C42.4846 26.1018 41.2238 26.3931 39.8229 26.3931V30.5117H38.1418V18.7444H47.2195ZM39.8229 24.8634C40.8315 24.8634 41.7337 24.6785 42.5294 24.3086C43.3363 23.9276 43.9919 23.3953 44.4962 22.7116C45.0005 22.0168 45.3199 21.2099 45.4544 20.2909H39.8229V24.8634Z" fill="#303030"/>
</svg>
