<svg width="48" height="31" viewBox="0 0 48 31" fill="none" xmlns="http://www.w3.org/2000/svg">
<path d="M7.35688 6.36545C8.40481 6.61042 9.27582 6.88942 9.9699 7.20244C10.664 7.50185 11.222 7.92374 11.6439 8.46812C12.0658 8.99889 12.2767 9.68617 12.2767 10.53C12.2767 11.3601 12.0181 12.0951 11.501 12.7347C10.9838 13.3607 10.2489 13.8507 9.29623 14.2045C8.35718 14.5448 7.26161 14.7149 6.00954 14.7149V12.7551C7.35688 12.7551 8.3844 12.5646 9.09209 12.1835C9.81339 11.7888 10.174 11.2581 10.174 10.5912C10.174 10.1285 10.0448 9.76783 9.78617 9.50925C9.52759 9.23706 9.18736 9.03292 8.76546 8.89682C8.35718 8.74712 7.71073 8.56339 6.82611 8.34564C5.57403 8.01901 4.58054 7.70599 3.84563 7.40658C3.11071 7.09356 2.47107 6.5696 1.92669 5.83468C1.38231 5.08616 1.11012 4.05864 1.11012 2.75213C1.11012 2.08526 1.17816 1.24147 1.31426 0.220761H11.8276V2.1397H3.13113C3.0903 2.46633 3.06988 2.76574 3.06988 3.03793C3.06988 3.75923 3.2332 4.32403 3.55983 4.73231C3.90006 5.1406 4.34918 5.45362 4.90717 5.67137C5.47877 5.88912 6.29534 6.12048 7.35688 6.36545ZM26.974 0.220761V14.5107H24.9326V8.34564H16.7669V14.5107H14.7255V0.220761H16.7669V6.38587H24.9326V0.220761H26.974ZM32.4915 0.220761V14.5107H30.45V0.220761H32.4915ZM46.9912 0.220761V0.83319C46.9912 2.5616 46.6033 4.08586 45.8275 5.40598C45.0518 6.7125 43.9767 7.7264 42.6021 8.44771C41.2411 9.1554 39.7101 9.50925 38.0089 9.50925V14.5107H35.9675V0.220761H46.9912ZM38.0089 7.65155C39.2337 7.65155 40.3293 7.42699 41.2956 6.97788C42.2755 6.51516 43.0716 5.86871 43.684 5.03853C44.2965 4.19474 44.6843 3.21485 44.8477 2.09887H38.0089V7.65155ZM6.00789 23.8033C6.87083 24.0051 7.58808 24.2348 8.15964 24.4926C8.73119 24.7391 9.19068 25.0865 9.5381 25.5348C9.88551 25.9719 10.0592 26.5379 10.0592 27.2327C10.0592 27.9163 9.84629 28.5215 9.42042 29.0482C8.99456 29.5637 8.38938 29.9672 7.60489 30.2586C6.8316 30.5388 5.92944 30.6788 4.89839 30.6788V29.065C6.00789 29.065 6.85402 28.9081 7.43678 28.5943C8.03075 28.2693 8.32774 27.8323 8.32774 27.2831C8.32774 26.9021 8.22127 26.6051 8.00834 26.3922C7.79541 26.168 7.51523 25.9999 7.16781 25.8879C6.8316 25.7646 6.29927 25.6133 5.57082 25.434C4.53977 25.165 3.72166 24.9072 3.11648 24.6607C2.5113 24.4029 1.98457 23.9715 1.53629 23.3663C1.08801 22.7499 0.863871 21.9038 0.863871 20.8279C0.863871 20.2787 0.919906 19.5839 1.03198 18.7434H9.68939V20.3236H2.52811C2.49449 20.5925 2.47768 20.8391 2.47768 21.0632C2.47768 21.6572 2.61216 22.1223 2.88113 22.4585C3.16131 22.7947 3.53114 23.0525 3.99063 23.2318C4.46132 23.4111 5.13374 23.6016 6.00789 23.8033ZM21.9939 18.7434V30.5107H20.3129V25.434H13.5886V30.5107H11.9076V18.7434H13.5886V23.8202H20.3129V18.7434H21.9939ZM30.0675 30.6788C28.9356 30.6788 27.899 30.4155 26.9576 29.8888C26.0162 29.3508 25.2765 28.6224 24.7386 27.7034C24.2007 26.7732 23.9317 25.7478 23.9317 24.6271C23.9317 23.5064 24.2007 22.4865 24.7386 21.5675C25.2765 20.6374 26.0162 19.9089 26.9576 19.3822C27.899 18.8442 28.9356 18.5753 30.0675 18.5753C31.1995 18.5753 32.2361 18.8442 33.1775 19.3822C34.1189 19.9089 34.8585 20.6374 35.3965 21.5675C35.9344 22.4865 36.2034 23.5064 36.2034 24.6271C36.2034 25.7478 35.9344 26.7732 35.3965 27.7034C34.8585 28.6224 34.1189 29.3508 33.1775 29.8888C32.2361 30.4155 31.1995 30.6788 30.0675 30.6788ZM30.0675 29.065C30.8745 29.065 31.6085 28.8689 32.2697 28.4767C32.9421 28.0844 33.4689 27.5521 33.8499 26.8797C34.2422 26.196 34.4383 25.4452 34.4383 24.6271C34.4383 23.8089 34.2422 23.0637 33.8499 22.3913C33.4689 21.7076 32.9421 21.1697 32.2697 20.7775C31.6085 20.3852 30.8745 20.1891 30.0675 20.1891C29.2606 20.1891 28.521 20.3852 27.8486 20.7775C27.1873 21.1697 26.6606 21.7076 26.2684 22.3913C25.8873 23.0637 25.6968 23.8089 25.6968 24.6271C25.6968 25.4452 25.8873 26.196 26.2684 26.8797C26.6606 27.5521 27.1873 28.0844 27.8486 28.4767C28.521 28.8689 29.2606 29.065 30.0675 29.065ZM47.2195 18.7434V19.2477C47.2195 20.671 46.9001 21.9262 46.2613 23.0133C45.6225 24.0891 44.7372 24.924 43.6053 25.518C42.4846 26.1008 41.2238 26.3922 39.8229 26.3922V30.5107H38.1418V18.7434H47.2195ZM39.8229 24.8624C40.8315 24.8624 41.7337 24.6775 42.5294 24.3077C43.3363 23.9266 43.9919 23.3943 44.4962 22.7107C45.0005 22.0158 45.3199 21.2089 45.4544 20.2899H39.8229V24.8624Z" fill="white"/>
</svg>
