<svg width="20" height="20" viewBox="0 0 20 20" fill="none" xmlns="http://www.w3.org/2000/svg">
<path d="M0.953125 8.27192C0.953125 9.28078 1.14451 10.227 1.52728 11.1104C1.91006 11.994 2.441 12.7721 3.12012 13.4446C3.79923 14.1172 4.58484 14.643 5.47694 15.0221C6.36905 15.4012 7.32444 15.5907 8.34311 15.5907C9.14569 15.5907 9.91122 15.4684 10.6397 15.2238C11.3682 14.9793 12.035 14.643 12.64 14.215L17.1963 18.7365C17.3074 18.8405 17.4293 18.9184 17.562 18.9704C17.6948 19.0224 17.8352 19.0484 17.9834 19.0484C18.1933 19.0484 18.3785 19.001 18.539 18.9062C18.6996 18.8114 18.8246 18.6815 18.9141 18.5164C19.0036 18.3513 19.0484 18.1679 19.0484 17.9661C19.0484 17.8194 19.0221 17.6818 18.9697 17.5534C18.9172 17.425 18.8416 17.3119 18.7428 17.2141L14.2144 12.7018C14.6897 12.0903 15.0617 11.4085 15.3302 10.6565C15.5988 9.90442 15.7331 9.10958 15.7331 8.27192C15.7331 7.26306 15.5417 6.31688 15.159 5.43337C14.7762 4.54986 14.2452 3.77181 13.5661 3.09924C12.887 2.42667 12.1014 1.90084 11.2092 1.52175C10.3172 1.14267 9.36178 0.953125 8.34311 0.953125C7.32444 0.953125 6.36905 1.14267 5.47694 1.52175C4.58484 1.90084 3.79923 2.42667 3.12012 3.09924C2.441 3.77181 1.91006 4.54986 1.52728 5.43337C1.14451 6.31688 0.953125 7.26306 0.953125 8.27192ZM2.53669 8.27192C2.53669 7.47707 2.6864 6.73265 2.98583 6.03868C3.28526 5.34471 3.70199 4.73328 4.23601 4.20439C4.77005 3.67551 5.38742 3.2628 6.08814 2.96625C6.78887 2.66971 7.54052 2.52144 8.34311 2.52144C9.14569 2.52144 9.89735 2.66971 10.5981 2.96625C11.2988 3.2628 11.9146 3.67551 12.4455 4.20439C12.9765 4.73328 13.3932 5.34471 13.6957 6.03868C13.9983 6.73265 14.1495 7.47707 14.1495 8.27192C14.1495 9.06678 13.9983 9.81119 13.6957 10.5052C13.3932 11.1991 12.9765 11.809 12.4455 12.3348C11.9146 12.8607 11.2988 13.2734 10.5981 13.573C9.89735 13.8726 9.14569 14.0224 8.34311 14.0224C7.54052 14.0224 6.78887 13.8726 6.08814 13.573C5.38742 13.2734 4.77005 12.8607 4.23601 12.3348C3.70199 11.809 3.28526 11.1991 2.98583 10.5052C2.6864 9.81119 2.53669 9.06678 2.53669 8.27192Z" fill="#303030"/>
</svg>
