<svg width="20" height="20" viewBox="0 0 20 20" fill="none" xmlns="http://www.w3.org/2000/svg">
<path d="M0.953125 8.27095C0.953125 9.2798 1.14451 10.226 1.52728 11.1095C1.91006 11.993 2.441 12.7711 3.12012 13.4436C3.79923 14.1162 4.58484 14.642 5.47694 15.0211C6.36905 15.4002 7.32444 15.5897 8.34311 15.5897C9.14569 15.5897 9.91122 15.4674 10.6397 15.2229C11.3682 14.9783 12.035 14.642 12.64 14.214L17.1963 18.7355C17.3074 18.8395 17.4293 18.9175 17.562 18.9694C17.6948 19.0214 17.8352 19.0474 17.9834 19.0474C18.1933 19.0474 18.3785 19 18.539 18.9052C18.6996 18.8104 18.8246 18.6805 18.9141 18.5155C19.0036 18.3503 19.0484 18.1669 19.0484 17.9651C19.0484 17.8184 19.0221 17.6809 18.9697 17.5524C18.9172 17.424 18.8416 17.3109 18.7428 17.2131L14.2144 12.7008C14.6897 12.0893 15.0617 11.4076 15.3302 10.6555C15.5988 9.90345 15.7331 9.1086 15.7331 8.27095C15.7331 7.26209 15.5417 6.3159 15.159 5.43239C14.7762 4.54888 14.2452 3.77084 13.5661 3.09826C12.887 2.42569 12.1014 1.89986 11.2092 1.52078C10.3172 1.14169 9.36178 0.952148 8.34311 0.952148C7.32444 0.952148 6.36905 1.14169 5.47694 1.52078C4.58484 1.89986 3.79923 2.42569 3.12012 3.09826C2.441 3.77084 1.91006 4.54888 1.52728 5.43239C1.14451 6.3159 0.953125 7.26209 0.953125 8.27095ZM2.53669 8.27095C2.53669 7.47609 2.6864 6.73168 2.98583 6.0377C3.28526 5.34373 3.70199 4.7323 4.23601 4.20341C4.77005 3.67453 5.38742 3.26182 6.08814 2.96527C6.78887 2.66873 7.54052 2.52046 8.34311 2.52046C9.14569 2.52046 9.89735 2.66873 10.5981 2.96527C11.2988 3.26182 11.9146 3.67453 12.4455 4.20341C12.9765 4.7323 13.3932 5.34373 13.6957 6.0377C13.9983 6.73168 14.1495 7.47609 14.1495 8.27095C14.1495 9.0658 13.9983 9.81021 13.6957 10.5042C13.3932 11.1982 12.9765 11.808 12.4455 12.3338C11.9146 12.8597 11.2988 13.2724 10.5981 13.572C9.89735 13.8716 9.14569 14.0214 8.34311 14.0214C7.54052 14.0214 6.78887 13.8716 6.08814 13.572C5.38742 13.2724 4.77005 12.8597 4.23601 12.3338C3.70199 11.808 3.28526 11.1982 2.98583 10.5042C2.6864 9.81021 2.53669 9.0658 2.53669 8.27095Z" fill="white"/>
</svg>
